<svg width="227" height="48" fill="none" xmlns="http://www.w3.org/2000/svg"><g clip-path="url(#clip0_380_1574)"><path d="M10.055 17.25a1.764 1.764 0 00-1.602-.357c-.58.157-1 .587-1.156 1.106.421.36 1.02.515 1.6.358a1.645 1.645 0 001.158-1.107z" fill="#00B6BD"/><path d="M14.681 7.202c.436-.117.796-.43.928-.865a1.22 1.22 0 00-.3-1.2c-.434.119-.795.433-.927.867-.132.435-.003.882.299 1.198z" fill="#F47721"/><path d="M21.96 2.81a1.164 1.164 0 00-1.085-.06c-.358.165-.58.49-.618.842.318.19.726.226 1.084.06.359-.165.581-.49.619-.842z" fill="#5FBB46"/><path d="M14.188 1.007a1.08 1.08 0 00-.732.759c-.09.366.04.733.306.984a1.08 1.08 0 00.732-.759c.09-.367-.04-.734-.306-.984z" fill="#9CCB3B"/><path d="M8.292 14.597a1.66 1.66 0 00-1.199-1.067 1.76 1.76 0 00-1.587.412 1.66 1.66 0 001.197 1.066 1.765 1.765 0 001.59-.411h-.001z" fill="#F47721"/><path d="M26.546 6.328a1.762 1.762 0 00-1.602-.358 1.64 1.64 0 00-1.158 1.105 1.762 1.762 0 001.602.358 1.644 1.644 0 001.158-1.105z" fill="#5FBB46"/><path d="M19.666 6.072c-.537.175-.97.594-1.106 1.151-.136.557.058 1.112.46 1.493.54-.175.974-.594 1.11-1.15.137-.557-.06-1.113-.464-1.494z" fill="#00B6BD"/><path d="M13.105 9.227c.035-.484-.18-.97-.62-1.272a1.595 1.595 0 00-1.471-.162c-.037.483.179.968.618 1.27.442.303.996.346 1.473.164z" fill="#9CCB3B"/><path d="M8.774 8.11a1.266 1.266 0 00-.556-1.146 1.44 1.44 0 00-1.324-.146c-.032.435.16.872.558 1.145.396.271.895.311 1.322.147z" fill="#00B6BD"/><path d="M10.087 2.582c-.09.532.098 1.09.555 1.463a1.77 1.77 0 001.612.317 1.546 1.546 0 00-.554-1.464 1.766 1.766 0 00-1.613-.316z" fill="#5FBB46"/><path d="M16.669 1.09a1.673 1.673 0 00-.073 1.71c.302.56.883.899 1.507.949a1.671 1.671 0 00.074-1.71c-.302-.559-.883-.898-1.508-.949z" fill="#00B6BD"/><path d="M24.876 2.511a1.394 1.394 0 00-1.216.48 1.221 1.221 0 00-.199 1.23c.454.046.918-.12 1.215-.48.298-.359.356-.825.2-1.23z" fill="#F47721"/><path d="M21.523.281a1.359 1.359 0 00-1.097.69c-.22.407-.183.873.053 1.242a1.357 1.357 0 001.097-.69 1.22 1.22 0 00-.053-1.242z" fill="#9CCB3B"/><path d="M7.117 11.268a1.41 1.41 0 00-.62-1.27 1.596 1.596 0 00-1.471-.164c-.037.484.178.97.618 1.273.441.3.996.343 1.473.162v-.001z" fill="#5FBB46"/><path d="M23.092 10.386c-.404.133-.729.445-.831.863-.102.417.044.833.348 1.119a1.23 1.23 0 00.83-.862 1.155 1.155 0 00-.347-1.12z" fill="#F47721"/><path d="M28.755 11.098a1.319 1.319 0 00-1.202-.269 1.229 1.229 0 00-.868.827c.317.271.766.388 1.201.27.436-.118.75-.44.869-.828z" fill="#5FBB46"/><path d="M10.745 12.47c.41 0 .742-.314.742-.702 0-.387-.332-.701-.742-.701s-.743.314-.743.701c0 .388.333.702.743.702z" fill="#00B6BD"/><path d="M7.768 5.095c.369 0 .668-.282.668-.632 0-.348-.3-.63-.668-.63-.369 0-.668.282-.668.63 0 .35.299.632.668.632zm12.928.591c.37 0 .669-.283.669-.632 0-.348-.298-.63-.668-.63-.37 0-.669.282-.669.63 0 .35.3.632.669.632h-.001z" fill="#F47721"/><path d="M25.257 18.509c.443 0 .802-.338.802-.758 0-.419-.36-.758-.802-.758-.444 0-.803.34-.803.758 0 .42.359.758.803.758z" fill="#9CCB3B"/><path d="M25.124 10.202c.443 0 .802-.34.802-.757 0-.42-.36-.759-.802-.759-.444 0-.803.34-.803.759 0 .417.36.757.803.757zm4.085 4.814a1.46 1.46 0 00-1.303-.408c-.495.09-.876.419-1.045.84.322.326.807.497 1.302.406.494-.091.875-.42 1.046-.838z" fill="#00B6BD"/><path d="M30.185 12.774c-.077-.18-4.183.276-4.614-.19-.429-.466.184-1.176.773-1.7.631-.567 1.59-1.922 1.284-2.033-.623.726-.966 1.12-1.688 1.773-.674.607-1.483 1.446-2.316 1.912-.775.434-1.346.879-2.305.734-.956-.145-1.436-.47-.664-1.403.77-.935 3.422-3.165 3.422-3.165-.047-.384-1.424.564-2.152 1.09-.358.26-1.207.785-1.213.532-.006-.256.448-1.009.84-1.511.821-1.053 2.217-2.819 3.76-4.397-.192-.193-2.925 2.433-2.925 2.236 0-.197.091-.945.223-1.628.124-.628.72-2.508.752-3.149-.241.097-1.045 3.055-1.424 4.01-.378.949-2.493 4.25-2.768 4.598-.352.445-.766.196-.898-.438-.081-.386-.758-2.51-.386-3.204.369-.693 1.177-.957 1.637-2.486.461-1.528.05-4.166-.241-4.355.006.896-.029 1.405-.143 2.295-.084.641-.077 1.02-.291 1.627-.14.446-.351.866-.624 1.246-.338.333-.493.558-.872.478a.684.684 0 01-.48-.335c-.327-.45-1.737-3.778-1.931-3.925 0 .239 1.115 3.91 1.213 4.881.083.781-.057 1.374-.137 2.155l-.303 1.34c-.216.072-.72-.816-1.158-1.435-.381-.544-.587-.86-.916-1.438.098-.417.17-.906.122-1.582-.047-.676 1.011-1.448.973-1.675-.027-.152-1.11.709-1.15.55a6.963 6.963 0 00-.192-.627c-.494-1.36-1.77-2.416-2.249-2.703.272.642 1.124 1.402 1.457 2.5.335 1.098.482 2.21.18 2.436-.386.289-1.357-.095-2.163-.56-1.155-.671-1.515-1.585-1.876-1.587-.36-.005.803 1.163.965 1.826.163.662-2.382.238-2.608.21-.391-.046-.475.145-.163.243.468.147 1.317.29 1.784.347 1.544.193 2.895.156 4.148 1.291 1.041.948 1.413 1.823 1.636 3.206.12.743-.947.48-2.916-.653-.71-.38-1.599-1.093-1.72-2.324-.148-.332-.336.929-.106 1.413.145.309-1.72-.352-2.43-.209-.414.096 2.078.333 3.229 1.258.613.492 2.626 1.883 3.392 2.552.216.188.1.725-.227.821-.406.12-1.133.061-1.894-.034-1.373-.172-1.963-.808-2.59-1.335-.629-.529-1.45-1.882-1.45-1.882 0 .43.062 1.075.349 1.521.25.39.414.605.72.955 0 0-2.525-.588-3.199-.588.097.241 1.66.563 2.402.965.881.472 3.866 1.905 3.774 2.144-.2.496-2.708.335-3.575.429-.888.1-2.284.244-2.303.517-.018.271 1.344-.026 2.131.044 1.511.133 2.558.143 3.859.476.915.236 2.016.888 2.22 1.294.202.392.429.765.386 1.969l-.082 5.139c-9.833.12-14.38.882-14.38.882s4.547.763 14.38.882l.082.805c.043 1.202-.184 1.576-.386 1.968-.204.406-1.305 1.06-2.22 1.294-1.301.332-2.348.343-3.859.477-.787.07-2.15-.229-2.13.044.018.273 1.414.416 2.302.517.867.092 3.375-.067 3.575.428.092.24-2.893 1.672-3.774 2.145-.742.4-2.305.723-2.402.963.674 0 3.2-.586 3.2-.586-.307.35-.472.566-.721.955-.287.445-.35 1.09-.35 1.521 0 0 .822-1.355 1.45-1.883.628-.527 1.218-1.162 2.591-1.336.76-.095 1.488-.154 1.894-.034.328.097.443.634.227.823-.766.668-2.78 2.058-3.392 2.552-1.15.924-3.643 1.16-3.229 1.256.71.144 2.575-.515 2.43-.209-.23.485-.042 1.746.107 1.414.12-1.232 1.008-1.944 1.72-2.324 1.968-1.132 3.035-1.396 2.915-.652-.223 1.382-.595 2.258-1.636 3.204-1.253 1.134-2.604 1.1-4.148 1.291-.467.059-1.316.2-1.784.348-.312.097-.228.29.163.245.226-.029 2.771-.453 2.608.207-.162.664-1.325 1.83-.965 1.827.36-.003.72-.916 1.876-1.588.806-.465 1.777-.848 2.163-.558.303.224.155 1.336-.18 2.434-.333 1.1-1.185 1.858-1.457 2.5.48-.287 1.755-1.342 2.249-2.703.074-.206.138-.414.193-.626.04-.158 1.122.703 1.149.55.038-.228-1.02-.998-.973-1.675a5.03 5.03 0 00-.122-1.583c.329-.576.534-.893.916-1.436.439-.62.942-1.508 1.158-1.434l.303 1.338c.08.78.22 1.375.137 2.154-.098.972-1.213 4.641-1.213 4.881.194-.146 1.604-3.474 1.93-3.923a.677.677 0 01.481-.337c.38-.08.534.144.872.48.306.45.45.732.624 1.246.214.607.207.986.29 1.625.115.89.15 1.4.144 2.297.29-.19.702-2.83.241-4.357-.46-1.528-1.268-1.79-1.637-2.485-.372-.694.305-2.819.386-3.206.132-.631.546-.88.898-.436.275.349 2.39 3.649 2.768 4.598.379.954 1.183 3.914 1.424 4.01-.033-.64-.628-2.522-.752-3.15-.132-.683-.223-1.429-.223-1.627 0-.198 2.733 2.429 2.924 2.235-1.542-1.578-2.938-3.343-3.76-4.396-.39-.503-.845-1.464-.84-1.72.007-.253.856.481 1.214.741.728.527 2.105 1.475 2.152 1.091 0 0-2.652-2.231-3.422-3.166-.772-.933-.292-1.257.664-1.402.96-.146 1.53.298 2.306.735.832.464 1.641 1.302 2.315 1.911.722.652 1.065 1.046 1.688 1.77.305-.108-.652-1.463-1.284-2.031-.589-.523-1.202-1.233-.773-1.7.431-.466 4.537-.009 4.614-.19.093-.235-3.428-.95-5.172-.962-1.743-.013-3.966-1.512-3.61-2.071.356-.559 2.068-.2 5.02.933.455.04-.853-.798-1.232-1.078 1.189-.04 3.108-.875 3.056-1.118-1.867.56-2.914.6-4.312.2-1.399-.399-3.435-1.031-3.666-1.34-.212-.284-.194-.593-.1-1.886l.1-.814c9.418-.14 13.775-.873 13.775-.873s-4.357-.732-13.775-.874l-.1-4.001c-.094-1.291-.067-2.233-.067-2.949 0-.256 2.434-1.024 3.833-1.425 1.398-.397 2.445-.358 4.312.2.052-.242-1.867-1.077-3.056-1.117.379-.28 1.687-1.117 1.231-1.077-2.95 1.132-4.663 1.491-5.02.932-.355-.558 1.868-2.058 3.611-2.071 1.744-.013 5.265-.728 5.172-.962z" fill="#00447C"/><path d="M50.565 20.608c0 .738-.191 1.36-.573 1.865-.382.492-.9.868-1.552 1.127a5.571 5.571 0 01-2.105.387H40V10.874h7.019c.615 0 1.144.166 1.587.498.456.32.8.74 1.035 1.257a3.588 3.588 0 01-.111 3.38 2.913 2.913 0 01-1.403 1.255c.75.222 1.342.622 1.773 1.2.443.58.665 1.294.665 2.144zm-2.568-.481a1.881 1.881 0 00-.203-.887 1.533 1.533 0 00-.554-.627 1.29 1.29 0 00-.775-.241h-3.916v3.454h3.786c.307 0 .585-.074.831-.221.259-.16.461-.37.61-.629.147-.258.223-.551.22-.85zm-5.448-7.073v3.305h3.398c.282 0 .542-.068.776-.203a1.46 1.46 0 00.554-.572c.148-.246.221-.543.221-.887 0-.332-.067-.622-.203-.868a1.372 1.372 0 00-.517-.573 1.296 1.296 0 00-.72-.203H42.55zm12.313 2.511v8.422h-2.549V10.874h2.032l6.779 8.643v-8.625h2.548v13.095h-2.124l-6.686-8.422zm20.403 6.187v2.235H66.16V10.874h8.94v2.234h-6.392v3.159h5.523v2.069h-5.523v3.416h6.557zm1.748 2.235V10.874h2.549v13.113h-2.55z" fill="#38BDF8"/><path d="M92.622 20.607c0 .739-.191 1.36-.573 1.866-.382.492-.9.868-1.552 1.126a5.571 5.571 0 01-2.105.388h-6.335V10.873h7.019c.615 0 1.144.167 1.587.499.457.32.8.74 1.035 1.257a3.587 3.587 0 01-.111 3.379 2.912 2.912 0 01-1.403 1.256c.75.222 1.342.622 1.773 1.2.443.58.665 1.294.665 2.143zm-2.568-.48a1.88 1.88 0 00-.203-.887 1.533 1.533 0 00-.554-.628 1.29 1.29 0 00-.775-.24h-3.916v3.454h3.786c.307 0 .585-.074.831-.222.259-.16.461-.37.61-.628.147-.258.224-.552.22-.85zm-5.448-7.073v3.305h3.398c.282 0 .542-.068.776-.203.234-.136.426-.334.554-.572.148-.247.221-.543.221-.887 0-.332-.067-.622-.203-.868a1.374 1.374 0 00-.517-.573 1.296 1.296 0 00-.72-.203h-3.509zm13.04-2.18h2.586l4.82 13.113h-2.622l-1.219-3.27h-4.58l-1.2 3.27h-2.623l4.838-13.114zm3.103 8.053l-1.81-5.412-1.883 5.412h3.693zm5.502 5.06V10.873h5.799c.604 0 1.158.124 1.662.37a4.1 4.1 0 011.33.997c.382.419.672.887.868 1.404.21.518.315 1.046.315 1.588a4.5 4.5 0 01-.296 1.607 3.892 3.892 0 01-.812 1.33 3.77 3.77 0 01-1.257.886l2.993 4.932h-2.808l-2.696-4.396H108.8v4.396h-2.549zm2.549-6.631h3.195c.321 0 .604-.092.849-.277a2.09 2.09 0 00.592-.776c.147-.32.221-.677.221-1.071 0-.419-.086-.78-.258-1.09a2.104 2.104 0 00-.665-.756 1.43 1.43 0 00-.85-.278H108.8v4.248zm14.999 6.723c-1.047 0-1.939-.172-2.678-.517a4.793 4.793 0 01-1.773-1.458 6.35 6.35 0 01-.979-2.088 9.511 9.511 0 01-.314-2.456v-6.687h2.549v6.686c0 .542.049 1.072.148 1.59.111.504.289.959.535 1.365.246.407.573.727.979.96.406.236.911.352 1.514.352.616 0 1.127-.117 1.533-.351.407-.235.745-.572.98-.979.246-.406.425-.862.535-1.366.111-.518.166-1.04.166-1.571v-6.686h2.53v6.686c0 .9-.111 1.743-.332 2.53a5.807 5.807 0 01-1.015 2.088 4.8 4.8 0 01-1.773 1.404c-.728.332-1.596.498-2.605.498zm7.258-6.741c0-.8.143-1.582.426-2.346a6.831 6.831 0 011.274-2.106 5.95 5.95 0 012.032-1.514c.8-.381 1.711-.572 2.733-.572 1.207 0 2.247.264 3.121.794.887.53 1.545 1.219 1.976 2.07l-1.957 1.347c-.222-.493-.511-.88-.868-1.163a3.053 3.053 0 00-1.145-.61 4.13 4.13 0 00-1.201-.185c-.64 0-1.2.13-1.681.388-.46.252-.863.599-1.181 1.016a4.453 4.453 0 00-.721 1.403 5.619 5.619 0 00-.222 1.552c0 .579.092 1.138.278 1.68a4.81 4.81 0 00.775 1.422c.345.407.751.734 1.219.98a3.535 3.535 0 001.57.35c.407 0 .819-.067 1.237-.203a3.496 3.496 0 001.164-.646c.357-.295.634-.677.831-1.145l2.087 1.2a3.879 3.879 0 01-1.274 1.662c-.586.46-1.249.81-1.958 1.035a7.021 7.021 0 01-2.161.35c-.936 0-1.792-.19-2.567-.572a6.714 6.714 0 01-2.013-1.552 7.847 7.847 0 01-1.312-2.18 6.92 6.92 0 01-.462-2.455zm24.243-6.465v13.114h-2.53V18.39h-5.947v5.596h-2.549V10.873h2.549v5.301h5.947v-5.3h2.53z" fill="#00447C"/><path d="M43.564 37.276H40v-9.153h3.418c.517 0 .957.059 1.319.176.361.115.654.279.88.493.206.2.358.439.456.716.1.274.151.575.151.904 0 .544-.138 1.013-.414 1.408-.273.391-.652.61-1.138.657.645.047 1.14.27 1.488.669.346.396.52.912.52 1.549 0 .41-.063.76-.188 1.05a2.361 2.361 0 01-.484.727 2.395 2.395 0 01-.752.493 3.453 3.453 0 01-.87.247c-.295.044-.57.064-.822.064zm-2.467-8.161v2.98h2.321c.544 0 .963-.13 1.255-.393.294-.265.443-.635.443-1.109 0-.23-.035-.428-.105-.592a1.188 1.188 0 00-.28-.417 1.49 1.49 0 00-.665-.358 3.296 3.296 0 00-.881-.111h-2.088zm0 3.96v3.204h2.35c.117 0 .276-.006.479-.018.206-.012.417-.05.636-.117.217-.07.41-.185.577-.346a1.2 1.2 0 00.321-.464 1.81 1.81 0 00.123-.71c0-.383-.075-.68-.222-.892a1.303 1.303 0 00-.543-.457 2.08 2.08 0 00-.636-.17 5.735 5.735 0 00-.501-.03h-2.584zm13.013 4.201h-5.88v-9.153h5.88v.992h-4.783v3.074h4.223v.986h-4.223v3.104h4.783v.997zm6.105-4.066l1.756 4.066h-1.208l-1.61-3.86h-2.479v3.86h-1.097v-9.153h3.384c.875 0 1.575.217 2.1.651.525.432.787 1.084.787 1.96 0 .62-.144 1.141-.431 1.567a2.351 2.351 0 01-1.202.91zm-3.541-.78h2.147c.625 0 1.105-.141 1.44-.423.334-.284.502-.695.502-1.232 0-.528-.172-.936-.513-1.226-.343-.289-.82-.434-1.43-.434h-2.146v3.315zm11.95 4.846H63.45v-9.153h1.096v8.156h4.078v.997zm2.22 0h-1.097v-9.153h1.097v9.153zm2.994 0H72.74v-9.153h1.598l4.09 8.05v-8.05h1.084v9.153h-1.598l-4.077-8.026v8.026z" fill="#38B0E8"/><path d="M85.853 37.276h-1.096v-9.153h1.096v4.195l3.78-4.195h1.406l-4.042 4.389 4.258 4.764h-1.453l-3.949-4.453v4.453zm6.774 0H91.52l3.348-9.153h1.243l3.354 9.153H98.35l-.8-2.241h-4.123l-.8 2.241zm2.865-8.026l-1.698 4.8h3.39l-1.692-4.8zm8.645 8.026h-3.565v-9.153h3.419c.516 0 .956.059 1.318.176.362.115.655.279.881.493.206.2.357.439.455.716.101.274.152.575.152.904 0 .544-.139 1.013-.415 1.408-.272.391-.651.61-1.137.657.645.047 1.14.27 1.487.669.346.396.52.912.52 1.549 0 .41-.063.76-.187 1.05a2.36 2.36 0 01-.484.727 2.397 2.397 0 01-.753.493 3.444 3.444 0 01-.869.247 5.59 5.59 0 01-.822.064zm-2.468-8.161v2.98h2.322c.544 0 .962-.13 1.254-.393.295-.265.443-.635.443-1.109 0-.23-.035-.428-.105-.592a1.182 1.182 0 00-.28-.417 1.487 1.487 0 00-.665-.358 3.291 3.291 0 00-.881-.111h-2.088zm0 3.96v3.204h2.351c.117 0 .276-.006.478-.018.206-.012.417-.05.636-.117.217-.07.41-.185.578-.346.135-.118.242-.272.32-.464a1.8 1.8 0 00.123-.71c0-.383-.074-.68-.222-.892a1.298 1.298 0 00-.542-.457 2.087 2.087 0 00-.636-.17 5.726 5.726 0 00-.502-.03h-2.584zm10.698 4.201h-3.565v-9.153h3.419c.516 0 .956.059 1.318.176.362.115.655.279.881.493.206.2.357.439.455.716.101.274.152.575.152.904 0 .544-.139 1.013-.415 1.408-.272.391-.651.61-1.137.657.645.047 1.14.27 1.487.669.346.396.52.912.52 1.549 0 .41-.063.76-.187 1.05a2.36 2.36 0 01-.484.727 2.397 2.397 0 01-.753.493 3.444 3.444 0 01-.869.247 5.59 5.59 0 01-.822.064zm-2.468-8.161v2.98h2.322c.544 0 .962-.13 1.254-.393.295-.265.443-.635.443-1.109 0-.23-.035-.428-.105-.592a1.182 1.182 0 00-.28-.417 1.487 1.487 0 00-.665-.358 3.291 3.291 0 00-.881-.111h-2.088zm0 3.96v3.204h2.351c.117 0 .276-.006.478-.018.206-.012.417-.05.636-.117.217-.07.41-.185.578-.346.135-.118.242-.272.32-.464a1.8 1.8 0 00.123-.71c0-.383-.074-.68-.222-.892a1.298 1.298 0 00-.542-.457 2.087 2.087 0 00-.636-.17 5.726 5.726 0 00-.502-.03h-2.584zm7.466 4.201h-1.108l3.348-9.153h1.242l3.355 9.153h-1.115l-.799-2.241h-4.124l-.799 2.241zm2.864-8.026l-1.697 4.8h3.389l-1.692-4.8zm10.255 8.026h-5.174v-9.153h1.097v8.156h4.077v.997zm1.456 0h-1.108l3.348-9.153h1.243l3.354 9.153h-1.114l-.799-2.241h-4.124l-.8 2.241zm2.865-8.026l-1.698 4.8h3.389l-1.691-4.8zm6.177 8.026h-1.096v-9.153h1.096v4.055h4.556v-4.055h1.097v9.153h-1.097v-4.113h-4.556v4.113zm14.741.118c-.716 0-1.339-.125-1.867-.376a3.589 3.589 0 01-1.312-1.032 4.436 4.436 0 01-.77-1.508 6.243 6.243 0 01-.251-1.784c0-.625.083-1.218.251-1.778a4.392 4.392 0 01.77-1.496 3.588 3.588 0 011.312-1.039c.528-.253 1.151-.381 1.867-.381.676 0 1.271.114 1.785.34.513.223.927.534 1.242.933.318.4.522.86.613 1.379h-1.196a1.902 1.902 0 00-.823-1.215c-.436-.3-.984-.451-1.645-.451-.676 0-1.245.161-1.703.48a2.973 2.973 0 00-1.032 1.321c-.231.56-.345 1.196-.345 1.907 0 .713.114 1.35.345 1.913.233.563.577 1.006 1.032 1.326.458.32 1.027.48 1.703.48.661 0 1.209-.16 1.645-.48.439-.32.713-.795.823-1.426h1.196c-.145.889-.534 1.593-1.167 2.112-.63.517-1.455.775-2.473.775zm8.945 0c-.716 0-1.339-.125-1.867-.376a3.652 3.652 0 01-1.318-1.032 4.515 4.515 0 01-.782-1.508 6.108 6.108 0 01-.257-1.784c0-.625.085-1.22.257-1.784a4.39 4.39 0 01.782-1.496c.35-.437.789-.782 1.318-1.033.528-.253 1.151-.381 1.867-.381.723 0 1.35.128 1.884.381.532.251.974.596 1.324 1.033.35.434.61.933.782 1.496.17.564.256 1.159.256 1.784a6.18 6.18 0 01-.256 1.784 4.534 4.534 0 01-.782 1.508c-.35.438-.792.783-1.324 1.032-.534.25-1.161.376-1.884.376zm0-.992c.684 0 1.26-.16 1.726-.481.47-.32.824-.76 1.062-1.32.241-.56.362-1.194.362-1.907 0-.712-.121-1.345-.362-1.901a2.97 2.97 0 00-1.062-1.314c-.466-.32-1.042-.482-1.726-.482-.67 0-1.237.162-1.704.482-.463.32-.816.76-1.061 1.314-.242.556-.362 1.19-.362 1.9 0 .714.12 1.349.362 1.908.245.56.598 1 1.061 1.32.467.321 1.034.481 1.704.481zm6.896.874h-1.096v-9.153h1.965l2.445 7.786 2.444-7.786h1.983v9.153h-1.097V28.78l-2.782 8.496h-1.085l-2.777-8.437v8.437zm10.723 0h-1.097v-9.153h1.966l2.444 7.786 2.445-7.786h1.983v9.153h-1.097V28.78l-2.782 8.496h-1.085l-2.777-8.437v8.437zm12.916.118c-1.155 0-2.006-.294-2.555-.88-.548-.587-.822-1.388-.822-2.406v-5.985h1.096v5.985c0 .713.181 1.276.543 1.69.362.41.941.616 1.738.616.794 0 1.371-.206 1.733-.616.364-.414.548-.977.548-1.69v-5.985h1.097v5.985c0 1.018-.277 1.819-.829 2.406-.548.586-1.398.88-2.549.88zm6.287-.118h-1.096v-9.153h1.598l4.089 8.05v-8.05h1.085v9.153h-1.598l-4.078-8.026v8.026zm8.672 0h-1.097v-9.153h1.097v9.153zm5.292 0h-1.097v-8.161h-3.074v-.992h7.263v.992h-3.092v8.161zm7.86 0h-1.143v-3.503l-3.413-5.65h1.278l2.683 4.56 2.718-4.56h1.255l-3.378 5.65v3.503z" fill="#02467D"/></g><defs><clipPath id="clip0_380_1574"><path fill="#fff" d="M0 0h227v48H0z"/></clipPath></defs></svg>