<svg width="222" height="48" fill="none" xmlns="http://www.w3.org/2000/svg"><path d="M10.055 17.25a1.765 1.765 0 00-1.602-.357c-.58.157-1 .587-1.156 1.106.421.36 1.02.515 1.6.358a1.644 1.644 0 001.158-1.107z" fill="#00B6BD"/><path d="M14.681 7.202c.436-.117.796-.43.928-.865a1.22 1.22 0 00-.3-1.2c-.434.119-.795.433-.927.867-.132.435-.003.882.299 1.198z" fill="#F47721"/><path d="M21.96 2.81a1.164 1.164 0 00-1.085-.06c-.358.165-.58.49-.618.842.318.19.726.226 1.084.06.359-.165.58-.49.618-.842z" fill="#5FBB46"/><path d="M14.188 1.007a1.08 1.08 0 00-.732.759c-.09.366.04.733.306.984a1.08 1.08 0 00.732-.759c.09-.367-.04-.734-.306-.984z" fill="#9CCB3B"/><path d="M8.292 14.597a1.659 1.659 0 00-1.199-1.067 1.76 1.76 0 00-1.587.412 1.66 1.66 0 001.197 1.066 1.765 1.765 0 001.59-.411z" fill="#F47721"/><path d="M26.546 6.328a1.762 1.762 0 00-1.602-.358 1.64 1.64 0 00-1.158 1.105 1.762 1.762 0 001.602.358 1.644 1.644 0 001.157-1.105z" fill="#5FBB46"/><path d="M19.666 6.072c-.537.175-.97.594-1.106 1.151-.136.557.058 1.112.46 1.493.54-.175.974-.594 1.11-1.15.137-.557-.06-1.113-.464-1.494z" fill="#00B6BD"/><path d="M13.105 9.227c.035-.484-.18-.97-.62-1.272a1.595 1.595 0 00-1.471-.162c-.037.483.179.968.618 1.27.442.303.996.346 1.473.164z" fill="#9CCB3B"/><path d="M8.774 8.11a1.266 1.266 0 00-.556-1.146 1.44 1.44 0 00-1.324-.146c-.032.435.16.872.558 1.145.396.271.895.31 1.322.146z" fill="#00B6BD"/><path d="M10.087 2.582c-.09.532.098 1.09.555 1.463a1.77 1.77 0 001.612.317 1.546 1.546 0 00-.554-1.464 1.766 1.766 0 00-1.613-.316z" fill="#5FBB46"/><path d="M16.669 1.09a1.672 1.672 0 00-.073 1.71c.302.56.883.899 1.507.949a1.672 1.672 0 00.074-1.71c-.302-.559-.883-.897-1.508-.948z" fill="#00B6BD"/><path d="M24.876 2.511a1.394 1.394 0 00-1.216.48 1.22 1.22 0 00-.199 1.23c.454.046.918-.12 1.215-.48.298-.359.356-.825.2-1.23z" fill="#F47721"/><path d="M21.523.281a1.359 1.359 0 00-1.097.69c-.22.407-.183.873.053 1.242a1.357 1.357 0 001.097-.69A1.22 1.22 0 0021.523.28z" fill="#9CCB3B"/><path d="M7.117 11.268a1.411 1.411 0 00-.62-1.27 1.596 1.596 0 00-1.471-.164c-.037.484.178.97.618 1.273.441.3.996.343 1.473.162z" fill="#5FBB46"/><path d="M23.092 10.386c-.404.133-.729.445-.831.863-.102.417.044.833.348 1.119a1.23 1.23 0 00.83-.862 1.155 1.155 0 00-.347-1.12z" fill="#F47721"/><path d="M28.755 11.098a1.318 1.318 0 00-1.202-.269 1.23 1.23 0 00-.868.827c.317.271.766.388 1.201.27.436-.118.75-.44.869-.828z" fill="#5FBB46"/><path d="M10.745 12.47c.41 0 .742-.314.742-.702 0-.387-.332-.701-.742-.701s-.743.314-.743.701c0 .388.333.702.743.702z" fill="#00B6BD"/><path d="M7.768 5.095c.369 0 .668-.282.668-.632 0-.348-.3-.63-.668-.63-.369 0-.668.282-.668.63 0 .35.299.632.668.632zm12.928.591c.37 0 .669-.283.669-.632 0-.348-.298-.63-.668-.63-.37 0-.669.282-.669.63 0 .35.3.632.669.632z" fill="#F47721"/><path d="M25.257 18.509c.443 0 .802-.338.802-.758 0-.419-.36-.758-.802-.758-.444 0-.803.34-.803.758 0 .42.359.758.803.758z" fill="#9CCB3B"/><path d="M25.124 10.202c.443 0 .802-.34.802-.757 0-.42-.36-.759-.802-.759-.444 0-.803.34-.803.759 0 .417.36.757.803.757zm4.085 4.814a1.461 1.461 0 00-1.303-.408c-.495.09-.876.419-1.045.84.322.326.807.497 1.302.406.494-.091.875-.42 1.046-.838z" fill="#00B6BD"/><path d="M30.185 12.774c-.077-.18-4.183.276-4.614-.19-.429-.466.184-1.176.773-1.7.631-.567 1.59-1.922 1.284-2.033-.623.726-.966 1.12-1.688 1.773-.674.607-1.483 1.446-2.316 1.912-.775.434-1.346.879-2.305.734-.956-.145-1.436-.47-.664-1.403.77-.935 3.422-3.165 3.422-3.165-.047-.384-1.424.564-2.152 1.09-.358.26-1.207.785-1.213.532-.006-.256.448-1.009.84-1.511.821-1.053 2.217-2.819 3.76-4.397-.192-.193-2.925 2.433-2.925 2.236 0-.197.091-.945.223-1.628.124-.628.72-2.508.752-3.149-.241.097-1.045 3.055-1.424 4.01-.378.949-2.493 4.25-2.768 4.598-.352.445-.766.196-.898-.438-.081-.386-.758-2.51-.386-3.204.369-.693 1.177-.957 1.637-2.486.461-1.528.05-4.166-.241-4.355.006.896-.029 1.405-.143 2.295-.084.641-.077 1.02-.291 1.627a4.424 4.424 0 01-.624 1.246c-.338.333-.493.558-.872.478a.684.684 0 01-.48-.335c-.327-.45-1.737-3.778-1.931-3.925 0 .239 1.115 3.91 1.213 4.881.083.781-.057 1.374-.137 2.155l-.303 1.34c-.216.072-.72-.816-1.158-1.435-.381-.544-.587-.86-.916-1.438.098-.417.17-.906.122-1.582-.047-.676 1.011-1.448.973-1.675-.027-.152-1.11.709-1.15.55a6.979 6.979 0 00-.192-.627c-.494-1.36-1.77-2.416-2.249-2.703.272.642 1.124 1.402 1.457 2.5.335 1.098.482 2.21.18 2.436-.386.289-1.357-.095-2.163-.56-1.155-.671-1.515-1.585-1.876-1.587-.36-.005.803 1.163.965 1.826.163.662-2.382.238-2.608.21-.391-.046-.475.145-.163.243.468.147 1.317.29 1.784.347 1.544.193 2.895.156 4.148 1.291 1.041.948 1.413 1.823 1.636 3.206.12.743-.947.48-2.916-.653-.71-.38-1.599-1.093-1.72-2.324-.148-.332-.336.929-.106 1.413.145.309-1.72-.352-2.43-.209-.414.096 2.078.333 3.229 1.258.613.492 2.626 1.883 3.392 2.552.216.188.1.725-.227.821-.406.12-1.133.061-1.894-.034-1.373-.172-1.963-.808-2.59-1.335-.629-.529-1.45-1.882-1.45-1.882 0 .43.062 1.075.349 1.521.25.39.414.605.72.955 0 0-2.525-.588-3.199-.588.097.241 1.66.563 2.402.965.881.472 3.866 1.905 3.774 2.144-.2.496-2.708.335-3.575.429-.888.1-2.284.244-2.303.517-.018.271 1.344-.026 2.131.044 1.511.133 2.558.143 3.859.476.915.236 2.016.888 2.22 1.294.202.392.429.765.386 1.969l-.082 5.139c-9.833.12-14.38.882-14.38.882s4.547.763 14.38.882l.082.805c.043 1.202-.184 1.576-.386 1.968-.204.406-1.305 1.06-2.22 1.294-1.301.332-2.348.343-3.859.477-.787.07-2.15-.229-2.13.044.018.273 1.414.416 2.302.517.867.092 3.375-.067 3.575.428.092.24-2.893 1.672-3.774 2.145-.742.4-2.305.723-2.402.963.674 0 3.2-.586 3.2-.586-.307.35-.472.566-.721.955-.287.445-.35 1.09-.35 1.521 0 0 .822-1.355 1.45-1.883.628-.527 1.218-1.162 2.591-1.336.76-.095 1.488-.154 1.894-.034.328.097.443.634.227.823-.766.668-2.78 2.058-3.392 2.552-1.15.924-3.643 1.16-3.229 1.256.71.144 2.575-.515 2.43-.209-.23.485-.042 1.746.107 1.414.12-1.232 1.008-1.944 1.72-2.324 1.968-1.132 3.035-1.396 2.915-.652-.223 1.382-.595 2.258-1.636 3.204-1.253 1.134-2.604 1.1-4.148 1.291-.467.059-1.316.2-1.784.348-.312.097-.228.29.163.245.226-.029 2.771-.453 2.608.207-.162.664-1.325 1.83-.965 1.827.36-.003.72-.916 1.876-1.588.806-.465 1.777-.848 2.163-.558.303.224.155 1.336-.18 2.434-.333 1.1-1.185 1.858-1.457 2.5.48-.287 1.755-1.342 2.249-2.703a7.13 7.13 0 00.193-.626c.04-.158 1.122.703 1.149.55.038-.228-1.02-.998-.973-1.675a5.028 5.028 0 00-.122-1.583c.329-.576.534-.893.916-1.436.439-.62.942-1.508 1.158-1.434l.303 1.338c.08.78.22 1.375.137 2.154-.098.972-1.213 4.641-1.213 4.881.194-.146 1.604-3.474 1.93-3.923a.677.677 0 01.481-.337c.38-.08.534.144.872.48.306.45.45.732.624 1.246.214.607.207.986.29 1.625.115.89.15 1.4.144 2.297.29-.19.702-2.83.241-4.357-.46-1.528-1.268-1.79-1.637-2.485-.372-.694.305-2.819.386-3.206.132-.631.546-.88.898-.436.275.349 2.39 3.649 2.768 4.598.379.954 1.183 3.914 1.424 4.01-.033-.64-.628-2.522-.752-3.15-.132-.683-.223-1.429-.223-1.627 0-.198 2.733 2.429 2.924 2.235-1.542-1.578-2.938-3.343-3.76-4.396-.39-.503-.845-1.464-.84-1.72.007-.253.856.481 1.214.741.728.527 2.105 1.475 2.152 1.091 0 0-2.652-2.231-3.422-3.166-.772-.933-.292-1.257.664-1.402.96-.146 1.53.298 2.306.735.832.464 1.641 1.302 2.315 1.911.722.652 1.065 1.046 1.688 1.77.305-.108-.652-1.463-1.284-2.031-.589-.523-1.202-1.233-.773-1.7.431-.466 4.537-.009 4.614-.19.093-.235-3.428-.95-5.172-.962-1.743-.013-3.966-1.512-3.61-2.071.356-.559 2.068-.2 5.02.933.455.04-.853-.798-1.232-1.078 1.189-.04 3.108-.875 3.056-1.118-1.867.56-2.914.6-4.312.2-1.399-.399-3.435-1.031-3.666-1.34-.212-.284-.194-.593-.1-1.886l.1-.814c9.418-.14 13.775-.873 13.775-.873s-4.357-.732-13.775-.874l-.1-4.001c-.094-1.291-.067-2.233-.067-2.949 0-.256 2.434-1.024 3.833-1.425 1.398-.397 2.445-.358 4.312.2.052-.242-1.867-1.077-3.056-1.117.379-.28 1.687-1.117 1.231-1.077-2.95 1.132-4.663 1.491-5.02.932-.355-.558 1.868-2.058 3.611-2.071 1.744-.013 5.265-.728 5.172-.962zm136.998 24.492h-.519V9.942h.519v27.324z" fill="#00447C"/><path d="M51.068 20.407c0 .785-.203 1.446-.609 1.983-.406.523-.956.923-1.65 1.198a5.924 5.924 0 01-2.238.412h-6.735V10.058h7.462c.654 0 1.217.177 1.688.53.485.34.851.786 1.1 1.336a3.815 3.815 0 01-.118 3.593 3.096 3.096 0 01-1.492 1.335c.798.236 1.427.662 1.885 1.277.471.615.707 1.374.707 2.277zm-2.73-.511a2 2 0 00-.216-.943 1.63 1.63 0 00-.589-.667 1.372 1.372 0 00-.824-.256h-4.163v3.672h4.025c.327 0 .622-.078.884-.235.275-.17.49-.393.648-.668a1.79 1.79 0 00.235-.903zm-5.792-7.52v3.514h3.613c.3 0 .576-.072.825-.216a1.55 1.55 0 00.589-.608c.157-.262.235-.577.235-.943 0-.353-.072-.661-.216-.923a1.46 1.46 0 00-.55-.609 1.378 1.378 0 00-.765-.216h-3.731zm13.091 2.67V24h-2.71V10.058h2.16l7.207 9.19v-9.17h2.71V24h-2.259l-7.108-8.954zm21.692 6.578V24h-9.68V10.058h9.504v2.376h-6.795v3.358h5.872v2.2h-5.872v3.632h6.971zM79.187 24V10.058h2.71V24h-2.71z" fill="#38BDF8"/><path d="M95.782 20.407c0 .785-.203 1.446-.609 1.983-.406.523-.956.923-1.65 1.198a5.924 5.924 0 01-2.238.412H84.55V10.058h7.462c.654 0 1.217.177 1.688.53.485.34.851.786 1.1 1.336a3.815 3.815 0 01-.118 3.593 3.096 3.096 0 01-1.492 1.335c.798.236 1.427.662 1.885 1.277.471.615.707 1.374.707 2.277zm-2.73-.511a2 2 0 00-.216-.943 1.63 1.63 0 00-.589-.667 1.372 1.372 0 00-.824-.256H87.26v3.672h4.025c.327 0 .622-.078.884-.235.275-.17.49-.393.648-.668a1.79 1.79 0 00.235-.903zm-5.792-7.52v3.514h3.613c.3 0 .576-.072.825-.216a1.55 1.55 0 00.589-.608c.157-.262.235-.577.235-.943 0-.353-.072-.661-.216-.923a1.46 1.46 0 00-.55-.609 1.378 1.378 0 00-.765-.216H87.26zm13.864-2.318h2.749L108.998 24h-2.788l-1.296-3.476h-4.87L98.768 24H95.98l5.144-13.942zm3.299 8.562l-1.924-5.754-2.003 5.754h3.927zm5.849 5.38V10.058h6.166c.642 0 1.231.131 1.767.393.55.262 1.021.615 1.414 1.06.406.445.714.943.923 1.493.223.55.334 1.112.334 1.688a4.77 4.77 0 01-.314 1.709 4.134 4.134 0 01-.864 1.413c-.38.406-.825.72-1.336.943L121.544 24h-2.985l-2.867-4.674h-2.71V24h-2.71zm2.71-7.05h3.397c.341 0 .642-.098.903-.294a2.23 2.23 0 00.629-.825c.157-.34.235-.72.235-1.139 0-.445-.091-.83-.274-1.158a2.242 2.242 0 00-.707-.805 1.522 1.522 0 00-.904-.295h-3.279v4.517zm15.947 7.148c-1.113 0-2.062-.183-2.847-.55a5.092 5.092 0 01-1.885-1.55 6.761 6.761 0 01-1.041-2.22 10.11 10.11 0 01-.334-2.611v-7.109h2.71v7.108c0 .576.052 1.14.157 1.69.118.536.308 1.02.569 1.452.262.432.609.773 1.041 1.021.432.25.969.373 1.61.373.655 0 1.198-.124 1.63-.373a2.839 2.839 0 001.041-1.04c.262-.432.452-.917.569-1.453.118-.55.177-1.106.177-1.67v-7.108h2.69v7.108c0 .956-.118 1.853-.353 2.69a6.169 6.169 0 01-1.08 2.22 5.095 5.095 0 01-1.885 1.492c-.773.354-1.696.53-2.769.53zm7.717-7.167c0-.851.151-1.682.452-2.494a7.27 7.27 0 011.355-2.239 6.316 6.316 0 012.16-1.61c.851-.405 1.819-.608 2.906-.608 1.283 0 2.389.281 3.318.844.943.563 1.643 1.296 2.101 2.2l-2.081 1.433c-.236-.524-.543-.936-.923-1.237a3.242 3.242 0 00-1.217-.648 4.39 4.39 0 00-1.277-.197c-.68 0-1.276.138-1.787.413a3.996 3.996 0 00-1.256 1.08 4.729 4.729 0 00-.766 1.492c-.157.55-.236 1.1-.236 1.65 0 .615.098 1.21.295 1.786.196.563.471 1.067.824 1.512.367.432.799.78 1.296 1.041a3.763 3.763 0 001.67.373c.432 0 .87-.072 1.315-.216a3.725 3.725 0 001.237-.687c.38-.314.674-.72.884-1.217l2.219 1.276a4.132 4.132 0 01-1.355 1.767 6.6 6.6 0 01-2.082 1.1 7.457 7.457 0 01-2.297.373c-.995 0-1.905-.203-2.729-.609a7.151 7.151 0 01-2.141-1.65 8.334 8.334 0 01-1.394-2.317 7.33 7.33 0 01-.491-2.611zm25.774-6.873V24h-2.69v-5.95h-6.323V24h-2.71V10.058h2.71v5.636h6.323v-5.636h2.69zM39.675 36.636v-8.508h1.08v4.704l4.392-4.716h1.164l-3.42 3.756 3.612 4.764h-1.212l-3.084-4.116-1.452 1.512v2.604h-1.08zm10.36-8.52h.912l3.48 8.52h-1.152l-1.008-2.496h-3.576l-.996 2.496h-1.152l3.492-8.52zm1.992 5.184l-1.536-3.936-1.584 3.936h3.12zm10.017 1.14c0 .44-.111.824-.335 1.152a2.262 2.262 0 01-.913.768 2.8 2.8 0 01-1.248.276h-4.044v-8.52h4.236c.4 0 .744.108 1.032.324.297.208.52.48.672.816a2.325 2.325 0 01-.084 2.208c-.207.36-.508.628-.9.804a2.1 2.1 0 011.152.804c.288.384.432.84.432 1.368zm-1.091-.192c0-.264-.06-.508-.18-.732a1.394 1.394 0 00-.469-.54 1.133 1.133 0 00-.672-.204h-3.047V35.7h2.963c.264 0 .5-.068.709-.204.215-.136.384-.312.504-.528.127-.224.191-.464.191-.72zm-4.369-5.196v2.844h2.712c.257 0 .48-.064.672-.192.2-.128.356-.3.468-.516.12-.216.18-.452.18-.708 0-.272-.056-.512-.167-.72a1.268 1.268 0 00-.444-.516 1.086 1.086 0 00-.637-.192h-2.784zm13.451 5.388c0 .44-.112.824-.336 1.152a2.262 2.262 0 01-.912.768 2.8 2.8 0 01-1.248.276h-4.044v-8.52h4.236c.4 0 .744.108 1.032.324.296.208.52.48.672.816a2.325 2.325 0 01-.084 2.208c-.208.36-.508.628-.9.804a2.1 2.1 0 011.152.804c.288.384.432.84.432 1.368zm-1.092-.192c0-.264-.06-.508-.18-.732a1.394 1.394 0 00-.468-.54 1.133 1.133 0 00-.672-.204h-3.048V35.7h2.964c.264 0 .5-.068.708-.204.216-.136.384-.312.504-.528.128-.224.192-.464.192-.72zm-4.368-5.196v2.844h2.712c.256 0 .48-.064.672-.192.2-.128.356-.3.468-.516.12-.216.18-.452.18-.708 0-.272-.056-.512-.168-.72a1.268 1.268 0 00-.444-.516 1.086 1.086 0 00-.636-.192h-2.784zm9.327-.936h.912l3.48 8.52h-1.152l-1.008-2.496h-3.576l-.996 2.496H70.41l3.492-8.52zm1.992 5.184l-1.536-3.936-1.584 3.936h3.12zm3.477 3.336v-8.52h1.08v7.56h4.752v.96h-5.832zm9.54-8.52h.912l3.48 8.52h-1.152l-1.008-2.496h-3.576l-.996 2.496H85.42l3.492-8.52zm1.992 5.184l-1.536-3.936-1.584 3.936h3.12zm10.329-5.184v8.52h-1.08V32.76H95.46v3.876h-1.08v-8.52h1.08V31.8h4.692v-3.684h1.08zm7.175 0h.912l3.48 8.52h-1.152l-1.008-2.496h-3.576l-.996 2.496h-1.152l3.492-8.52zm1.992 5.184l-1.536-3.936-1.584 3.936h3.12zm2.609-.984c0-.52.088-1.028.264-1.524a4.5 4.5 0 01.792-1.368 3.8 3.8 0 011.284-.984c.504-.248 1.076-.372 1.716-.372.76 0 1.412.176 1.956.528.544.344.948.788 1.212 1.332l-.852.552a2.295 2.295 0 00-.648-.852 2.274 2.274 0 00-.84-.456 3.063 3.063 0 00-.876-.132c-.472 0-.892.096-1.26.288-.36.192-.664.448-.912.768s-.436.68-.564 1.08c-.12.392-.18.788-.18 1.188 0 .44.072.864.216 1.272.152.408.36.768.624 1.08.264.312.576.56.936.744.36.184.752.276 1.176.276.296 0 .6-.052.912-.156.312-.104.604-.264.876-.48.272-.224.488-.512.648-.864l.9.492a2.694 2.694 0 01-.816 1.08c-.368.296-.78.52-1.236.672a4.126 4.126 0 01-1.332.228c-.584 0-1.12-.124-1.608-.372a4.324 4.324 0 01-1.272-1.008 5.025 5.025 0 01-.828-1.416 4.64 4.64 0 01-.288-1.596zm11.146-4.2h.912l3.48 8.52h-1.152l-1.008-2.496h-3.576l-.996 2.496h-1.152l3.492-8.52zm1.992 5.184l-1.536-3.936-1.584 3.936h3.12zm3.477 3.336v-8.52h2.952c.912 0 1.672.192 2.28.576a3.512 3.512 0 011.38 1.536c.304.64.456 1.352.456 2.136 0 .864-.168 1.616-.504 2.256a3.607 3.607 0 01-1.428 1.488c-.616.352-1.344.528-2.184.528h-2.952zm5.976-4.272c0-.64-.12-1.208-.36-1.704a2.676 2.676 0 00-1.02-1.164c-.448-.28-.996-.42-1.644-.42h-1.872v6.6h1.872c.656 0 1.208-.144 1.656-.432a2.833 2.833 0 001.02-1.188 4 4 0 00.348-1.692zm8.338 3.312v.96h-5.784v-8.52h5.676v.96h-4.596v2.76h3.996v.9h-3.996v2.94h4.704zm8.79.96v-6.504l-2.808 5.004h-.66l-2.82-5.004v6.504h-1.08v-8.52h1.14l3.084 5.532 3.096-5.532h1.128v8.52h-1.08zm3.384-8.52l2.58 4.44 2.604-4.44h1.176l-3.24 5.412v3.108h-1.08v-3.132l-3.228-5.388h1.188z" fill="#00447C"/><path d="M175.278 16.203v.524h-4.032v-6.002h3.956v.524h-3.365v2.164h2.934v.499h-2.934v2.291h3.441zm.531-1.665c0-.418.085-.798.254-1.142.174-.35.414-.628.718-.837a1.798 1.798 0 011.04-.313c.367 0 .693.099.981.296.293.192.521.426.685.702v-2.689h.575v5.479c0 .079.017.138.05.178a.238.238 0 00.153.059v.456a1.178 1.178 0 01-.263.017.46.46 0 01-.312-.144.41.41 0 01-.136-.296v-.43a1.917 1.917 0 01-.71.684c-.299.17-.609.254-.93.254-.304 0-.586-.062-.845-.186a2.154 2.154 0 01-.668-.508 2.506 2.506 0 01-.44-.727 2.468 2.468 0 01-.152-.854zm3.678.676v-1.361a1.502 1.502 0 00-.355-.55 1.853 1.853 0 00-.558-.397 1.353 1.353 0 00-1.252 0 1.536 1.536 0 00-.498.397 2.004 2.004 0 00-.305 1.91 1.9 1.9 0 00.355.576c.152.163.327.29.524.38.198.09.412.136.643.136.147 0 .299-.029.457-.085.157-.056.307-.133.448-.228.146-.102.267-.22.363-.355a.992.992 0 00.178-.423zm1.793-.305v-2.587h.575v2.486c0 .502.084.877.253 1.124.175.248.431.373.77.373.225 0 .442-.048.651-.144a1.794 1.794 0 00.938-1.066v-2.773h.575v3.712c0 .079.017.138.051.178a.239.239 0 00.152.059v.456a2.02 2.02 0 01-.161.009.78.78 0 01-.11.008.498.498 0 01-.296-.135.419.419 0 01-.126-.288l-.017-.591a2.089 2.089 0 01-.787.794 2.069 2.069 0 01-1.065.288c-.462 0-.812-.16-1.048-.482-.237-.321-.355-.795-.355-1.42zm6.93 1.903c-.321 0-.617-.06-.887-.178a2.307 2.307 0 01-.702-.507 2.444 2.444 0 01-.465-.736 2.413 2.413 0 01-.161-.879c0-.417.093-.797.279-1.141a2.13 2.13 0 01.778-.82 2.165 2.165 0 011.15-.305c.411 0 .775.096 1.09.288.316.186.55.44.702.76l-.558.178a1.306 1.306 0 00-.524-.524 1.421 1.421 0 00-.736-.194c-.293 0-.56.076-.803.228-.242.152-.437.36-.583.626a1.895 1.895 0 00-.211.904c0 .333.073.634.219.905.147.27.341.487.584.65a1.503 1.503 0 001.352.135c.181-.067.336-.157.465-.27a.88.88 0 00.271-.38l.566.17a1.455 1.455 0 01-.397.566c-.18.163-.394.293-.642.389-.243.09-.505.135-.787.135zm2.332-1.353a1.1 1.1 0 01.237-.71 1.48 1.48 0 01.651-.465c.282-.113.606-.17.972-.17.214 0 .437.018.668.051.231.034.437.085.617.153v-.372c0-.372-.11-.668-.329-.888-.22-.22-.525-.33-.913-.33a1.9 1.9 0 00-.702.136 3.377 3.377 0 00-.71.38l-.22-.406a3.59 3.59 0 01.845-.44c.276-.1.558-.152.846-.152.541 0 .969.155 1.285.465.315.31.473.739.473 1.285v2.038c0 .079.017.138.051.178.034.033.087.053.161.059v.456a5.183 5.183 0 00-.161.017.292.292 0 01-.101 0 .429.429 0 01-.322-.135.452.452 0 01-.118-.27l-.009-.322a1.966 1.966 0 01-.769.592 2.429 2.429 0 01-.964.203 1.66 1.66 0 01-.769-.178 1.443 1.443 0 01-.533-.49 1.316 1.316 0 01-.186-.685zm2.951.338c.062-.079.11-.155.144-.228a.486.486 0 00.05-.195v-.642a3.46 3.46 0 00-1.217-.228c-.412 0-.744.081-.998.245-.253.163-.38.386-.38.668 0 .163.042.318.127.465.084.14.208.26.372.355.163.09.355.135.575.135.276 0 .532-.053.769-.16a1.41 1.41 0 00.558-.415zm4.05.719a3.23 3.23 0 00-.212.093 1.881 1.881 0 01-.786.169c-.163 0-.318-.031-.465-.093a.777.777 0 01-.338-.279.845.845 0 01-.127-.473v-3.154h-.609v-.457h.609v-1.488h.575v1.488h1.015v.457h-1.015v2.993a.468.468 0 00.169.355.597.597 0 00.364.118c.157 0 .301-.025.431-.076a1.51 1.51 0 00.237-.118l.152.465zm.676.211v-4.405h.575v4.405h-.575zm0-5.326v-.846h.575v.846h-.575zm3.676 5.41c-.316 0-.609-.058-.88-.177a2.262 2.262 0 01-.693-.499 2.404 2.404 0 01-.448-.727 2.39 2.39 0 01-.161-.87c0-.316.054-.61.161-.88.107-.276.259-.518.457-.727.197-.214.428-.38.693-.499a2.08 2.08 0 01.879-.186c.316 0 .606.062.871.186.265.119.496.285.693.5.197.208.35.45.457.726.107.27.16.564.16.88 0 .304-.053.594-.16.87-.107.27-.26.513-.457.727a2.138 2.138 0 01-.693.5 2.13 2.13 0 01-.879.177zm-1.598-2.265c0 .327.07.626.211.896.147.265.341.476.583.634.243.152.511.229.804.229.293 0 .56-.08.803-.237.242-.158.437-.372.583-.643.147-.276.22-.575.22-.896 0-.327-.073-.626-.22-.896a1.735 1.735 0 00-.583-.643 1.443 1.443 0 00-.803-.236 1.41 1.41 0 00-.804.245 1.84 1.84 0 00-.574.65 1.82 1.82 0 00-.22.897zm8.41 2.181h-.575v-2.46c0-.519-.076-.896-.229-1.133-.152-.242-.391-.364-.718-.364a1.45 1.45 0 00-.668.17c-.22.107-.414.256-.583.448-.164.186-.282.4-.356.642v2.697h-.574v-4.405h.524v.998c.118-.214.273-.4.465-.558.191-.163.408-.29.651-.38.242-.09.493-.136.752-.136.243 0 .448.045.617.136.169.09.305.22.406.389.102.163.175.363.22.6.045.23.068.49.068.778v2.578zm7.489 0l-2.992-3.153a13.08 13.08 0 01-.584-.66 2.289 2.289 0 01-.313-.499 1.187 1.187 0 01.102-1.116c.135-.197.315-.355.541-.473a1.66 1.66 0 01.769-.178c.265 0 .502.051.71.153.215.095.384.233.508.414.124.175.186.38.186.617 0 .254-.074.482-.22.685a2.621 2.621 0 01-.558.558c-.226.169-.476.34-.753.516a8.63 8.63 0 00-.642.482 2.116 2.116 0 00-.457.507c-.112.18-.169.386-.169.617 0 .248.071.46.212.634.141.17.318.299.532.389.22.085.446.127.677.127.304 0 .583-.068.837-.203.259-.141.484-.333.676-.575.192-.248.338-.53.44-.846.107-.315.16-.65.16-1.006h.491c0 .429-.068.832-.203 1.21a3.13 3.13 0 01-.567.98 2.618 2.618 0 01-.845.668 2.346 2.346 0 01-1.049.237 2.27 2.27 0 01-.963-.203 1.82 1.82 0 01-.702-.575 1.456 1.456 0 01-.254-.854c0-.304.071-.57.212-.795a2.49 2.49 0 01.558-.617 8.43 8.43 0 01.727-.524c.259-.17.487-.324.685-.465.202-.147.36-.293.473-.44a.806.806 0 00.169-.49c0-.22-.082-.4-.245-.541a.925.925 0 00-.626-.211c-.186 0-.352.039-.499.118a.93.93 0 00-.346.313.755.755 0 00-.127.422.79.79 0 00.068.305c.045.101.132.23.262.389.129.152.315.355.558.608l3.322 3.475h-.761zm-44.95 10v-6.003h2.536c.259 0 .496.054.71.161.214.107.4.254.558.44.164.18.288.383.372.608.09.22.135.446.135.677 0 .287-.056.558-.169.812a1.715 1.715 0 01-.465.642c-.197.175-.431.29-.701.347l1.471 2.316h-.668l-1.412-2.215h-1.776v2.215h-.591zm.591-2.739h1.962c.237 0 .442-.065.617-.194.175-.13.31-.3.406-.508.096-.214.144-.44.144-.676a1.36 1.36 0 00-.169-.668 1.31 1.31 0 00-.44-.499 1.017 1.017 0 00-.609-.194h-1.911v2.739zm6.542 2.824a2.18 2.18 0 01-.88-.178 2.238 2.238 0 01-.701-.499 2.405 2.405 0 01-.465-.735 2.436 2.436 0 01-.161-.888c0-.411.093-.789.279-1.133.192-.344.454-.617.786-.82.333-.208.71-.313 1.133-.313.434 0 .812.105 1.133.313.327.209.583.485.769.829.186.338.279.71.279 1.116v.135c0 .04-.002.07-.008.093h-3.771c.028.316.116.597.262.845.153.243.347.437.584.584.242.14.504.211.786.211a1.6 1.6 0 00.812-.22 1.21 1.21 0 00.541-.575l.499.136a1.661 1.661 0 01-.415.566c-.186.17-.406.302-.659.398-.248.09-.516.135-.803.135zm-1.624-2.494h3.255a1.796 1.796 0 00-.262-.846 1.56 1.56 0 00-.583-.566 1.51 1.51 0 00-.786-.212 1.5 1.5 0 00-.787.212 1.63 1.63 0 00-.583.575 1.847 1.847 0 00-.254.837zm6.087 2.494c-.361 0-.696-.06-1.006-.178a2.106 2.106 0 01-.803-.54l.236-.407c.248.231.496.4.744.508.254.101.522.152.804.152.343 0 .622-.068.837-.203a.677.677 0 00.321-.6c0-.175-.054-.308-.161-.398a1.074 1.074 0 00-.448-.228 10.942 10.942 0 00-.693-.194 6.036 6.036 0 01-.77-.263 1.241 1.241 0 01-.465-.355c-.101-.146-.152-.335-.152-.566 0-.288.071-.524.212-.71.146-.192.343-.336.591-.431.254-.102.536-.153.846-.153.338 0 .637.054.896.161.259.107.471.256.634.448l-.279.389a1.418 1.418 0 00-.566-.397 1.836 1.836 0 00-.719-.136c-.18 0-.352.026-.516.076a.863.863 0 00-.405.237c-.102.107-.153.257-.153.448 0 .158.04.282.119.372a.958.958 0 00.355.22c.158.056.352.118.583.186.333.09.623.183.871.28.248.09.44.208.575.354.135.147.203.352.203.617 0 .412-.155.733-.465.964-.31.231-.719.347-1.226.347zm4.501 0c-.315 0-.609-.06-.879-.178a2.231 2.231 0 01-.702-.499 2.443 2.443 0 01-.465-.735 2.436 2.436 0 01-.16-.888c0-.411.093-.789.279-1.133.191-.344.453-.617.786-.82a2.09 2.09 0 011.133-.313c.434 0 .811.105 1.133.313.327.209.583.485.769.829.186.338.279.71.279 1.116v.135c0 .04-.003.07-.008.093h-3.771c.028.316.115.597.262.845.152.243.347.437.583.584a1.593 1.593 0 001.598-.008c.259-.147.44-.339.541-.576l.499.136c-.09.208-.228.397-.414.566-.186.17-.406.302-.66.398a2.33 2.33 0 01-.803.135zm-1.623-2.494h3.255a1.808 1.808 0 00-.262-.846 1.563 1.563 0 00-.584-.566 1.504 1.504 0 00-.786-.212 1.5 1.5 0 00-.786.212 1.623 1.623 0 00-.583.575 1.835 1.835 0 00-.254.837zm4.286 1.141c0-.276.079-.513.236-.71a1.48 1.48 0 01.651-.465 2.6 2.6 0 01.973-.17c.214 0 .436.018.668.052.231.033.436.084.617.152v-.372c0-.372-.11-.668-.33-.888-.22-.22-.524-.33-.913-.33a1.92 1.92 0 00-.702.135 3.401 3.401 0 00-.71.381l-.22-.406c.288-.197.569-.344.846-.44.276-.1.558-.152.845-.152.541 0 .97.155 1.285.465.316.31.474.739.474 1.285v2.038c0 .079.017.138.05.178.034.033.088.053.161.059v.456a5.183 5.183 0 00-.161.017.292.292 0 01-.101 0c-.141-.006-.248-.05-.321-.135a.448.448 0 01-.119-.27l-.008-.322a1.97 1.97 0 01-.77.592 2.42 2.42 0 01-.963.203 1.67 1.67 0 01-.77-.178 1.44 1.44 0 01-.532-.49 1.316 1.316 0 01-.186-.685zm2.95.338c.062-.079.11-.155.144-.228a.473.473 0 00.051-.194v-.643a3.496 3.496 0 00-1.218-.228c-.411 0-.744.081-.997.245-.254.163-.381.386-.381.668 0 .163.042.318.127.465.085.14.209.26.372.355.163.09.355.135.575.135.276 0 .533-.053.769-.16.243-.108.429-.246.558-.415zm4.168-2.967a1.837 1.837 0 00-1.015.321c-.287.203-.49.482-.609.837v2.74h-.575v-4.406h.542v1.057a2.1 2.1 0 01.6-.752 1.516 1.516 0 011.057-.322v.525zm2.494 3.982c-.322 0-.618-.06-.888-.178a2.307 2.307 0 01-.702-.507 2.444 2.444 0 01-.465-.736 2.412 2.412 0 01-.16-.879c0-.417.093-.797.279-1.141.186-.344.445-.617.777-.82a2.165 2.165 0 011.15-.305c.412 0 .775.096 1.091.288.315.186.549.44.702.76l-.558.178a1.302 1.302 0 00-.525-.524 1.418 1.418 0 00-.735-.194 1.48 1.48 0 00-.803.228c-.243.152-.437.36-.584.626a1.895 1.895 0 00-.211.904 1.864 1.864 0 00.803 1.556 1.512 1.512 0 001.353.135c.18-.068.335-.158.465-.27a.885.885 0 00.27-.38l.567.168a1.468 1.468 0 01-.398.567c-.18.163-.394.293-.642.389-.242.09-.505.135-.786.135zm6.39-.085h-.575v-2.46c0-.496-.087-.868-.262-1.116-.175-.254-.426-.38-.753-.38-.214 0-.428.056-.642.169a1.82 1.82 0 00-.558.448c-.158.186-.271.4-.338.642v2.697h-.575v-6.172h.575v2.765c.174-.327.417-.586.727-.778a1.866 1.866 0 011.006-.296c.253 0 .468.045.642.136.181.09.324.222.432.397.112.17.194.37.245.6.05.226.076.482.076.77v2.578zm-34.762 10v-6.002h.591v6.002h-.591zm5.639 0h-.575v-2.46c0-.519-.076-.896-.228-1.133-.152-.242-.392-.364-.719-.364a1.45 1.45 0 00-.668.17 1.867 1.867 0 00-.583.448c-.163.186-.282.4-.355.642v2.697h-.575v-4.405h.524v.998c.119-.214.274-.4.465-.558a2.158 2.158 0 011.404-.516c.242 0 .448.045.617.136.169.09.304.22.406.389.101.163.174.363.22.6.045.23.067.49.067.778v2.578zm2.63.085c-.361 0-.696-.06-1.006-.178a2.117 2.117 0 01-.804-.54l.237-.407c.248.231.496.4.744.508.254.101.521.152.803.152.344 0 .623-.068.837-.203a.678.678 0 00.322-.6c0-.175-.054-.308-.161-.398a1.08 1.08 0 00-.448-.228 10.942 10.942 0 00-.693-.194 6.036 6.036 0 01-.77-.263 1.226 1.226 0 01-.465-.355c-.101-.146-.152-.335-.152-.566 0-.288.07-.524.211-.71a1.33 1.33 0 01.592-.431c.254-.102.536-.153.846-.153.338 0 .637.054.896.161.259.107.47.256.634.448l-.279.389a1.422 1.422 0 00-.567-.397 1.83 1.83 0 00-.718-.136c-.181 0-.352.026-.516.076a.866.866 0 00-.406.237c-.101.107-.152.257-.152.448 0 .158.04.282.118.372a.963.963 0 00.356.22c.157.056.352.118.583.186.332.09.623.183.871.28.248.09.439.208.575.354.135.147.203.352.203.617 0 .412-.155.733-.465.964-.31.231-.719.347-1.226.347zm4.712-.296a3.266 3.266 0 00-.211.093 1.92 1.92 0 01-.786.169c-.164 0-.319-.031-.465-.093a.786.786 0 01-.339-.279.853.853 0 01-.126-.474V32.78h-.609v-.457h.609v-1.488h.574v1.488h1.015v.457h-1.015v2.993c.012.158.068.276.17.355a.596.596 0 00.363.118c.158 0 .302-.025.431-.076.13-.056.209-.096.237-.118l.152.465zm.676.211v-4.405h.575v4.405h-.575zm0-5.326v-.846h.575v.846h-.575zm3.913 5.115a3.23 3.23 0 00-.212.093 1.881 1.881 0 01-.786.169c-.163 0-.318-.031-.465-.093a.777.777 0 01-.338-.279.845.845 0 01-.127-.474V32.78h-.609v-.457h.609v-1.488h.575v1.488h1.015v.457h-1.015v2.993a.468.468 0 00.169.355.597.597 0 00.364.118c.157 0 .301-.025.431-.076a1.51 1.51 0 00.237-.118l.152.465zm.634-1.606v-2.588h.574v2.486c0 .502.085.877.254 1.124.175.248.431.372.769.372.226 0 .443-.047.651-.143a1.81 1.81 0 00.567-.423c.163-.186.287-.4.372-.642v-2.774h.575v3.712c0 .079.017.138.051.178a.239.239 0 00.152.059v.456a2.02 2.02 0 01-.161.009.78.78 0 01-.11.008.496.496 0 01-.296-.135.424.424 0 01-.127-.288l-.016-.591a2.089 2.089 0 01-.787.794 2.069 2.069 0 01-1.065.288c-.462 0-.812-.16-1.048-.482-.237-.321-.355-.795-.355-1.42zm7.133 1.606a3.036 3.036 0 00-.211.093 1.92 1.92 0 01-.787.169c-.163 0-.318-.031-.465-.093a.783.783 0 01-.338-.279.853.853 0 01-.127-.474V32.78h-.608v-.457h.608v-1.488h.575v1.488h1.015v.457h-1.015v2.993c.012.158.068.276.169.355a.6.6 0 00.364.118c.158 0 .301-.025.431-.076.13-.056.209-.096.237-.118l.152.465zm2.504.296c-.316 0-.609-.06-.879-.178a2.231 2.231 0 01-.702-.499 2.443 2.443 0 01-.465-.735 2.436 2.436 0 01-.161-.888c0-.411.093-.789.279-1.133.192-.344.454-.617.787-.82a2.09 2.09 0 011.133-.313c.434 0 .811.105 1.132.313.327.209.584.485.77.829.186.338.279.71.279 1.116v.135c0 .04-.003.07-.009.093h-3.77c.028.316.115.597.262.845.152.243.346.437.583.584a1.597 1.597 0 001.598-.009c.259-.146.44-.338.541-.575l.499.136c-.09.208-.228.397-.414.566-.186.17-.406.302-.66.397-.248.09-.516.136-.803.136zm-1.623-2.494h3.255a1.808 1.808 0 00-.262-.846 1.563 1.563 0 00-.584-.566 1.507 1.507 0 00-.786-.212c-.287 0-.55.07-.786.212a1.633 1.633 0 00-.584.575 1.847 1.847 0 00-.253.837z" fill="#0284C7"/></svg>